<?xml version="1.0" standalone="no"?>
<!DOCTYPE svg PUBLIC "-//W3C//DTD SVG 20010904//EN"
 "http://www.w3.org/TR/2001/REC-SVG-20010904/DTD/svg10.dtd">
<svg version="1.0" xmlns="http://www.w3.org/2000/svg"
 width="615.000000pt" height="800.000000pt" viewBox="0 0 615.000000 800.000000"
 preserveAspectRatio="xMidYMid meet">

<g transform="translate(0.000000,800.000000) scale(0.100000,-0.100000)"
fill="#000000" stroke="none">
<path d="M0 4000 l0 -4000 3065 0 3065 0 0 4000 0 4000 -3065 0 -3065 0 0
-4000z m2850 2178 c0 -1517 0 -1490 -55 -1701 -162 -623 -675 -1108 -1308
-1237 -139 -29 -352 -40 -734 -40 l-333 1 0 470 0 469 193 0 c313 0 486 36
712 148 111 55 203 115 300 199 77 65 205 207 205 227 0 6 -77 58 -171 115
l-171 104 -61 -63 c-85 -87 -131 -123 -228 -178 -95 -55 -201 -95 -304 -116
-58 -12 -298 -21 -452 -17 l-23 1 0 1510 0 1510 1215 0 1215 0 0 -1402z m660
-4488 c13 -8 15 -71 18 -446 2 -318 0 -440 -9 -450 -16 -19 -638 -21 -657 -2
-17 17 -17 579 0 596 9 9 70 12 213 12 143 0 204 3 213 12 8 8 12 53 12 138 0
85 4 130 12 138 14 14 176 16 198 2z m1434 -6 c20 -19 23 -193 4 -212 -8 -8
-46 -12 -103 -12 -57 0 -95 4 -103 12 -8 8 -12 47 -12 110 0 117 0 117 117
118 61 0 86 -4 97 -16z m374 4 c14 -14 17 -874 4 -896 -6 -9 -35 -12 -108 -10
l-99 3 -3 444 c-1 319 1 448 9 457 15 18 179 20 197 2z m371 -2 c8 -9 10 -138
9 -457 l-3 -444 -105 0 -105 0 -3 444 c-1 319 1 448 9 457 8 10 37 14 99 14
62 0 91 -4 99 -14z m-4654 -309 c4 -13 5 -180 3 -373 l-3 -349 -34 -65 c-71
-137 -210 -233 -363 -250 -123 -14 -213 -13 -227 4 -8 9 -11 51 -9 122 l3 109
96 6 c110 7 173 31 219 81 66 71 10 134 -64 71 -17 -14 -45 -32 -63 -40 -40
-16 -165 -17 -181 -1 -9 9 -12 99 -12 344 0 183 3 339 6 348 5 14 43 16 315
16 l309 0 5 -23z m834 9 c8 -9 11 -99 9 -307 l-3 -294 -319 -3 c-227 -2 -323
1 -332 9 -19 16 -21 578 -2 597 19 19 631 17 647 -2z m823 -3 c17 -15 18 -38
18 -298 0 -205 -3 -284 -12 -293 -17 -17 -639 -17 -656 0 -9 9 -12 88 -12 294
0 244 2 285 16 298 13 14 57 16 321 16 271 0 309 -2 325 -17z m1196 5 c8 -8
12 -64 12 -188 0 -124 4 -180 12 -188 7 -7 29 -12 50 -12 53 0 58 18 58 210 0
87 3 165 6 174 5 13 23 16 98 16 58 0 96 -4 104 -12 8 -8 12 -64 12 -188 0
-192 2 -200 56 -200 61 0 64 12 64 210 0 153 2 179 16 184 32 12 181 6 193 -8
8 -9 11 -99 9 -307 l-3 -294 -440 -3 c-405 -2 -441 -1 -452 15 -17 22 -19 554
-3 584 9 17 22 19 103 19 59 0 97 -4 105 -12z m1060 0 c17 -17 17 -579 0 -596
-8 -8 -47 -12 -109 -12 -79 0 -98 3 -103 16 -11 28 -7 564 4 585 9 17 22 19
103 19 59 0 97 -4 105 -12z"/>
<path d="M1480 6801 c-96 -31 -163 -72 -230 -140 -105 -106 -160 -235 -160
-378 -1 -297 244 -543 540 -543 243 0 463 171 524 406 65 251 -64 517 -304
631 -92 44 -273 56 -370 24z"/>
<path d="M3129 1171 c-22 -23 -29 -39 -29 -68 1 -42 12 -61 52 -87 39 -25 89
-14 123 26 23 27 26 39 22 72 -12 84 -108 117 -168 57z"/>
<path d="M683 1175 c-66 -28 -85 -110 -37 -158 48 -48 119 -41 158 15 53 75
-35 179 -121 143z"/>
<path d="M1489 1171 c-40 -40 -40 -89 0 -133 24 -27 36 -33 71 -33 36 0 47 6
71 35 33 38 36 67 14 110 -31 59 -107 69 -156 21z"/>
<path d="M2309 1171 c-58 -58 -22 -154 63 -168 33 -5 41 -2 73 30 27 27 35 43
35 72 0 86 -108 128 -171 66z"/>
</g>
</svg>
